<svg xmlns="http://www.w3.org/2000/svg" viewBox="0 0 64 64"><defs><style>.cls-1{fill:#f05133;}.cls-2{fill:#fff;}.cls-3{fill:none;}</style></defs><title>i_git-mark</title><g id="ICONS-64x"><path class="cls-1" d="M62.47,29,34.77,1.34a4.05,4.05,0,0,0-5.73,0L23.11,7.28l7.08,7.08a5,5,0,0,1,6.47,6.47l7,7a5,5,0,1,1-2.83,2.83L34,23.83V41.42a5,5,0,1,1-4,0V23.58a5,5,0,0,1-2.65-6.4l-7.08-7.08L1.84,28.54a4.05,4.05,0,0,0,0,5.73L29.54,62a4.05,4.05,0,0,0,5.73,0L62.47,34.78A4.05,4.05,0,0,0,62.47,29Z"/><path class="cls-2" d="M27,19a5,5,0,0,0,3,4.58V41.42a5,5,0,1,0,4,0V23.83l6.85,6.85a5,5,0,1,0,2.83-2.83l-7-7a5,5,0,0,0-6.47-6.47L23.11,7.28l-2.83,2.83,7.08,7.08A5,5,0,0,0,27,19Z"/><rect class="cls-3" width="64" height="64"/></g></svg>