<svg id="Layer_2" data-name="Layer 2" xmlns="http://www.w3.org/2000/svg" viewBox="0 0 128 128"><defs><style>.cls-1{fill:#e94b4c;}</style></defs><title>Gulp</title><path id="cup-end" class="cls-1" d="M40.33,82.75A62.29,62.29,0,0,1,30.78,72a27.41,27.41,0,0,1-2.19-3.67l-1.31,6.4-10.8,14c-1.32,1.47,2.28,6.85,8,12s11.49,8.16,12.81,6.7L50,94.87l6-2A27.17,27.17,0,0,1,52,91.09,62.28,62.28,0,0,1,40.33,82.75Z"/><path id="cup-main" class="cls-1" d="M92.37,52.48A139.06,139.06,0,0,1,78.08,41.07a139.06,139.06,0,0,1-12.88-13,34.18,34.18,0,0,1-3.44-4.68A8.22,8.22,0,0,1,61.11,22L44.75,44.78q.64-.39,1.31-.75a27.17,27.17,0,0,1,2.83-1.31,25.38,25.38,0,0,1,2.9-1,20.48,20.48,0,0,1,2.84-.54,14,14,0,0,1,2.63-.07,9.08,9.08,0,0,1,2.26.44,5,5,0,0,1,1.75,1,4.26,4.26,0,0,1,1.21,1.92,6.26,6.26,0,0,1,.13,2.8,1.6,1.6,0,0,1-.22.64,3.4,3.4,0,0,1-.36.48,1.59,1.59,0,0,1-.93.56,1,1,0,0,1-.81-.22A1,1,0,0,1,60,48a7.93,7.93,0,0,1,.23-1.4,2.89,2.89,0,0,0,0-1.34,1.84,1.84,0,0,0-.56-.93,3.2,3.2,0,0,0-1.86-.7,10.78,10.78,0,0,0-2.72.11A20.82,20.82,0,0,0,52,44.5a28.2,28.2,0,0,0-3.24,1.27,22.18,22.18,0,0,0-2.9,1.61,11.16,11.16,0,0,0-2.16,1.8,6.65,6.65,0,0,0-.52.66,2.85,2.85,0,0,0-.37.73,1.58,1.58,0,0,0-.07.71,1,1,0,0,0,.35.62,2.27,2.27,0,0,0,1,.47,7.83,7.83,0,0,0,1.44.21,15.17,15.17,0,0,0,1.69,0q.89,0,1.73-.16t1.55-.28a7.31,7.31,0,0,0,1.16-.35L54.77,50a1.62,1.62,0,0,1,.94-.22,1.22,1.22,0,0,1,.68.29,1.08,1.08,0,0,1,.22.28.87.87,0,0,1,.11.34.88.88,0,0,1-.05.39,1.22,1.22,0,0,1-.25.4,6.7,6.7,0,0,1-1,.9,10.49,10.49,0,0,1-1,.68q-.53.31-1.11.59t-1.17.62a2.85,2.85,0,0,0-.44.22l-.89.52-1.18.71-1.32.81L47,57.32,45.81,58l-.86.55-.42.26a3.08,3.08,0,0,1-.5.26,3.46,3.46,0,0,1-.6.19,2,2,0,0,1-.59,0,.75.75,0,0,1-.45-.18.65.65,0,0,1-.25-.58,1.84,1.84,0,0,1,.51-.84l.14-.15.16-.16a5.23,5.23,0,0,1,.73-.53L45,56.08l1.51-.91,1.42-.83q-1,.11-2,.13a15.33,15.33,0,0,1-2-.08A9.32,9.32,0,0,1,42,54a3.84,3.84,0,0,1-1.42-.78A2.81,2.81,0,0,1,39.7,52c0-.08,0-.17-.06-.26L29.1,66c-.41,1.11,3.93,8.63,12,15.9s16,10.78,17.1,10.25L74,78.12h-.79a25.28,25.28,0,0,1-2.57-.07,8.86,8.86,0,0,1-2.06-.4,4.68,4.68,0,0,1-1.66-1,2.28,2.28,0,0,1-.81-1.28,1.37,1.37,0,0,1,.37-1.18l.07-.08.09-.08a2.67,2.67,0,0,1,1-.5A11.6,11.6,0,0,1,69,73.21q.76-.14,1.58-.26l1.53-.23a11.61,11.61,0,0,0,1.25-.27,1.56,1.56,0,0,0,.73-.37.35.35,0,0,0,.09-.29.65.65,0,0,0-.24-.35,2.33,2.33,0,0,0-.93-.49,5.08,5.08,0,0,0-1.24-.18,9.43,9.43,0,0,0-1.41.07,14.58,14.58,0,0,0-1.46.25q-.72.16-1.39.38t-1.2.43l-.46.2-.66.29-.76.33-.73.33-.61.28-.37.17-.49.23-.82.42-1,.51-1,.51-.8.42-.46.25a5.36,5.36,0,0,1-.7.34,3,3,0,0,1-.68.19,1.76,1.76,0,0,1-.64,0,1.27,1.27,0,0,1-.57-.3,1.22,1.22,0,0,1-.41-.65,1,1,0,0,1,.33-.8,2.56,2.56,0,0,1,.46-.4,5.37,5.37,0,0,1,.55-.33l.56-.28.53-.26,3-1.28q1.5-.63,2.94-1.28l.59-.27h-.11A16.46,16.46,0,0,1,62,70.43a8.51,8.51,0,0,1-1.81-.35,3.74,3.74,0,0,1-1.37-.76,2,2,0,0,1-.52-.69,1.41,1.41,0,0,1-.11-.69,1.76,1.76,0,0,1,.22-.69l.15-.23L58,67a8.87,8.87,0,0,1-1.71-.36A3.35,3.35,0,0,1,55.06,66,1.26,1.26,0,0,1,54.6,65a2,2,0,0,1,.63-1.25,7.4,7.4,0,0,1,1.2-1,8,8,0,0,1-1.37.32,7,7,0,0,1-1.54.06A5.5,5.5,0,0,1,52,62.78a4.55,4.55,0,0,1-1.45-.89,3,3,0,0,1-.52-.6,1.65,1.65,0,0,1-.26-.7,1.77,1.77,0,0,1,.1-.8,2.75,2.75,0,0,1,.57-.9l.34-.3a9.55,9.55,0,0,1,1.15-.8q.82-.51,2.23-1.25t3.57-1.62a2,2,0,0,1,1-.19,1.25,1.25,0,0,1,.71.31,1.36,1.36,0,0,1,.23.28,1.16,1.16,0,0,1,.15.35.87.87,0,0,1,0,.38.76.76,0,0,1-.19.36,1,1,0,0,1-.21.18,3.33,3.33,0,0,1-.63.31l-1,.37-1.18.45q-.63.24-1.25.55a12.45,12.45,0,0,0-1.21.68,5.64,5.64,0,0,0-1,.83,1,1,0,0,0-.23.44.43.43,0,0,0,.16.44,2.59,2.59,0,0,0,1.5.63,6.83,6.83,0,0,0,1.88-.08,12.62,12.62,0,0,0,2-.51q1-.34,1.72-.67a8.37,8.37,0,0,0,1-.52,10.63,10.63,0,0,1,1-.53,3.25,3.25,0,0,1,.9-.28.86.86,0,0,1,.72.22.85.85,0,0,1,.3.72,1.28,1.28,0,0,1-.35.77,2.3,2.3,0,0,1-.61.43q-.43.23-1,.5l-1.26.58q-.67.3-1.33.65a13.66,13.66,0,0,0-1.23.73,5.11,5.11,0,0,0-1,.81.47.47,0,0,0,.05.76,2.38,2.38,0,0,0,.89.44,6.53,6.53,0,0,0,1.38.25l.4,0a10.17,10.17,0,0,1,1.19-.71l2.17-1.1,2-1,9.12-4.53a1.58,1.58,0,0,1,1-.2,1.43,1.43,0,0,1,.72.33,1.1,1.1,0,0,1,.35.65,1,1,0,0,1-.3.81,1.65,1.65,0,0,1-.45.34,6.75,6.75,0,0,1-.62.29l-1.68.76-2.13,1L69,63.39l-2.4,1.17-2.21,1.09-1.8.9a8.23,8.23,0,0,0-.72.41,2.89,2.89,0,0,0-.63.51.72.72,0,0,0-.18.31.3.3,0,0,0,.12.29,1.6,1.6,0,0,0,.61.3,6.65,6.65,0,0,0,1,.2q.54.08,1.16.12l1.26,0h1.25l1.1,0a.56.56,0,0,1,.23,0q.57-.33,1.1-.66l.7-.37a10.3,10.3,0,0,1,.93-.45,4.08,4.08,0,0,1,.92-.27.78.78,0,0,1,.68.14,1,1,0,0,1,.38.65.92.92,0,0,1-.28.65l-.2.19-.32.26-.33.25-.25.15q.67-.07,1.4-.07a10.23,10.23,0,0,1,1.41.08,6.36,6.36,0,0,1,1.3.3,3.06,3.06,0,0,1,1.05.61,2.88,2.88,0,0,1,.53.63,2.34,2.34,0,0,1,.3.74,1.8,1.8,0,0,1,0,.77,1.58,1.58,0,0,1-.39.73,3.16,3.16,0,0,1-1.08.75,9.29,9.29,0,0,1-1.48.51q-.8.21-1.63.34l-1.54.22L69.75,75a1.37,1.37,0,0,0-.58.16.39.39,0,0,0-.11.29.52.52,0,0,0,.2.33,1.43,1.43,0,0,0,.62.24,10.59,10.59,0,0,0,1.4.16q.94.06,2.43.09l2.4,0L98.82,55.9a8.21,8.21,0,0,1-1.43-.5A34.18,34.18,0,0,1,92.37,52.48Z"/><path id="cup-top" class="cls-1" d="M83.64,34.87C73.13,25.43,63.54,19,62.22,20.44s6.14,10.31,16.65,19.75S99,56.09,100.29,54.62,94.16,44.31,83.64,34.87Zm1.68,8.86c-1.25-1.12-2-2.31-1.71-2.65s1.57.29,2.82,1.42,2,2.31,1.71,2.65S86.58,44.86,85.32,43.74Z"/><g id="straw"><g id="straw-join"><ellipse class="cls-1" cx="86.08" cy="42.9" rx="0.54" ry="2.45" transform="translate(-3.35 78.29) rotate(-48.08)"/></g><path id="straw-end" class="cls-1" d="M117.46,35.51c-.41,0-.85-.9-1-2.11s0-2.24.37-2.26,1,.83,1.11,2S117.86,35.46,117.46,35.51Z"/><polygon id="_straw" data-name="
straw" class="cls-1" points="117.46 35.51 116.84 31.14 97.15 32.71 84.25 41.26 87.9 44.54 98.97 37.01 117.46 35.51"/></g></svg>