<?xml version="1.0" encoding="utf-8"?>
<!-- Generator: Adobe Illustrator 21.0.0, SVG Export Plug-In . SVG Version: 6.00 Build 0)  -->
<svg version="1.1" id="Layer_1" xmlns="http://www.w3.org/2000/svg" xmlns:xlink="http://www.w3.org/1999/xlink" x="0px" y="0px"
	 viewBox="0 0 145.8 164.6" style="enable-background:new 0 0 145.8 164.6;" xml:space="preserve">
<style type="text/css">
	.st0{display:none;}
	.st1{display:inline;fill:#FFFFFF;}
	.st2{display:inline;}
	.st3{fill:#D5BA33;}
	.st4{fill:#FED93E;}
	.st5{fill:#FFFFFF;}
</style>
<title>javascript-logo</title>
<desc>Created with Sketch.</desc>
<g class="st0">
	<path id="Shape_4_" class="st1" d="M0,0h142.5c2.9,0,2.9,0,2.9,2.9c-0.9,0.7-0.6,1.8-0.7,2.8c-1.5,16-2.9,31.9-4.4,47.8
		c-2.8,30.9-5.4,61.7-8.2,92.6c-0.1,1.6-0.7,2.2-2.2,2.5c-18.5,5.1-37.2,10.4-55.7,15.6c-1.3,0.4-2.5,0.4-3.9,0
		c-18.4-5.3-36.6-10.4-55-15.5c-1.8-0.4-2.5-1.3-2.6-3.1c-1.5-17.8-3.1-35.9-4.7-53.8C6.4,73.7,4.8,55.3,3.2,37.1
		c-1-10.9-1.9-21.9-2.8-32.7C0.6,2.8,0.1,1.5,0,0z"/>
	<g id="Page-1_1_" class="st2">
		<g id="javascript-logo_1_" transform="translate(0.167366, 0.000000)">
			<g id="svg2_1_">
				<g id="Group_1_">
					<path id="Shape_3_" class="st3" d="M0.2,0h142.5c2.9,0,2.9,0,2.9,2.9c-0.9,0.7-0.6,1.8-0.7,2.8c-1.5,16-2.9,31.9-4.4,47.8
						c-2.8,30.9-5.4,61.7-8.2,92.6c-0.1,1.6-0.7,2.2-2.2,2.5c-18.5,5.1-37.2,10.4-55.7,15.6c-1.3,0.4-2.5,0.4-3.9,0
						c-18.4-5.3-36.6-10.4-55-15.5c-1.8-0.4-2.5-1.3-2.6-3.1c-1.5-17.8-3.1-35.9-4.7-53.8C6.6,73.7,5,55.3,3.4,37.1
						c-1-10.9-1.9-21.9-2.8-32.7C0.8,2.8,0.3,1.5,0.2,0z M72.7,83v66.5v1.9c0,1.5,0.6,1.6,1.9,1.3c14.9-4.1,29.8-8.2,44.8-12.4
						c1.2-0.3,1.6-0.9,1.8-2c0.1-1.8,0.3-3.6,0.4-5.4c1.2-13.4,2.5-27,3.8-40.4c1-12,2-23.9,3.1-35.9c1.2-13.4,2.5-27,3.8-40.4
						c0.3-2.9,0-3.2-2.9-3.2H76c-3.2,0-3.2,0-3.2,3.1C72.7,38.5,72.7,60.7,72.7,83z M66.9,80.4V34.6c0-2.8,0-2.8-2.8-2.8
						c-2.9,0-5.8,0.1-8.8,0c-2-0.1-2.6,0.4-2.6,2.5c0.1,23.8,0,47.4,0.1,71.2c0,2-0.4,2.3-2.3,1.8c-7.9-2.3-15.9-4.4-23.9-6.7
						c-1.5-0.4-2-0.1-1.9,1.5c0.1,4.4,0.1,8.6,0,13c0,1.8,0.6,2.3,2.2,2.8c12.5,3.5,25.2,7,37.8,10.5c1.9,0.4,2.3,0.3,2.3-1.8
						C66.9,111.2,66.9,95.8,66.9,80.4z"/>
					<path id="Shape_2_" class="st4" d="M72.7,83V16.2c0-3.1,0-3.1,3.2-3.1h53.2c2.9,0,3.2,0.1,2.9,3.2c-1.2,13.4-2.5,27-3.8,40.4
						c-1,12-2,23.9-3.1,35.9c-1.2,13.4-2.5,27-3.8,40.4c-0.1,1.8-0.4,3.6-0.4,5.4c0,1.2-0.6,1.8-1.8,2c-14.9,4.1-29.8,8.2-44.8,12.4
						c-1.3,0.3-1.9,0.1-1.9-1.3v-1.9C72.7,127.3,72.7,105.2,72.7,83z M78.7,63.5c0,9.9,0,19.8,0,29.6c0,1.5,0.4,1.9,1.9,1.6
						c8.5-1.6,16.8-3.1,25.2-4.5c1.5-0.3,1.8,0.1,1.6,1.5c-0.3,3.6-0.4,7.1-0.6,10.8c0,1.6-0.7,2.3-2.2,2.6c-8,2-16,4.2-24.2,6.4
						c-1.3,0.3-1.9,0.9-1.9,2.2c0.1,4.5,0.1,9,0,13.6c0,1.3,0.3,1.8,1.8,1.3c12-3.2,24.1-6.3,36-9.5c1.2-0.3,1.6-0.7,1.8-1.9
						c1-14.4,2.2-28.7,3.4-43c0.1-2.6,0.1-2.6-2.5-2.3c-7.9,1-15.9,1.9-23.8,2.9c-1.9,0.3-2.6-0.1-2.5-2.2c0.1-7,0.1-14,0-21
						c0-1.9,0.4-2.5,2.5-2.5c8.8,0.1,17.5,0,26.3,0.1c1.5,0,2.2-0.3,2.2-1.9c0.3-4.4,0.7-8.8,1.2-13.1c0.1-1.8-0.3-2.2-2-2.2
						c-14,0-28,0.1-42,0c-1.8,0-2.2,0.6-2.2,2.3C78.7,43.9,78.7,53.7,78.7,63.5z"/>
				</g>
			</g>
		</g>
	</g>
</g>
<g>
	<path id="Shape_5_" class="st5" d="M0,0h142.5c2.9,0,2.9,0,2.9,2.9c-0.9,0.7-0.6,1.8-0.7,2.8c-1.5,16-2.9,31.9-4.4,47.8
		c-2.8,30.9-5.4,61.7-8.2,92.6c-0.1,1.6-0.7,2.2-2.2,2.5c-18.5,5.1-37.2,10.4-55.7,15.6c-1.3,0.4-2.5,0.4-3.9,0
		c-18.4-5.3-36.6-10.4-55-15.5c-1.8-0.4-2.5-1.3-2.6-3.1c-1.5-17.8-3.1-35.9-4.7-53.8C6.4,73.7,4.8,55.3,3.2,37.1
		c-1-10.9-1.9-21.9-2.8-32.7C0.6,2.8,0.1,1.5,0,0z"/>
	<g id="Page-1">
		<g id="javascript-logo" transform="translate(0.167366, 0.000000)">
			<g id="svg2">
				<g id="Group">
					<path id="Shape" class="st3" d="M0.2,0h142.5c2.9,0,2.9,0,2.9,2.9c-0.9,0.7-0.6,1.8-0.7,2.8c-1.5,16-2.9,31.9-4.4,47.8
						c-2.8,30.9-5.4,61.7-8.2,92.6c-0.1,1.6-0.7,2.2-2.2,2.5c-18.5,5.1-37.2,10.4-55.7,15.6c-1.3,0.4-2.5,0.4-3.9,0
						c-18.4-5.3-36.6-10.4-55-15.5c-1.8-0.4-2.5-1.3-2.6-3.1c-1.5-17.8-3.1-35.9-4.7-53.8C6.6,73.7,5,55.3,3.4,37.1
						c-1-10.9-1.9-21.9-2.8-32.7C0.8,2.8,0.3,1.5,0.2,0z M72.7,83v66.5v1.9c0,1.5,0.6,1.6,1.9,1.3c14.9-4.1,29.8-8.2,44.8-12.4
						c1.2-0.3,1.6-0.9,1.8-2c0.1-1.8,0.3-3.6,0.4-5.4c1.2-13.4,2.5-27,3.8-40.4c1-12,2-23.9,3.1-35.9c1.2-13.4,2.5-27,3.8-40.4
						c0.3-2.9,0-3.2-2.9-3.2H76c-3.2,0-3.2,0-3.2,3.1C72.7,38.5,72.7,60.7,72.7,83z M66.9,80.4V34.6c0-2.8,0-2.8-2.8-2.8
						c-2.9,0-5.8,0.1-8.8,0c-2-0.1-2.6,0.4-2.6,2.5c0.1,23.8,0,47.4,0.1,71.2c0,2-0.4,2.3-2.3,1.8c-7.9-2.3-15.9-4.4-23.9-6.7
						c-1.5-0.4-2-0.1-1.9,1.5c0.1,4.4,0.1,8.6,0,13c0,1.8,0.6,2.3,2.2,2.8c12.5,3.5,25.2,7,37.8,10.5c1.9,0.4,2.3,0.3,2.3-1.8
						C66.9,111.2,66.9,95.8,66.9,80.4z"/>
					<path id="Shape_1_" class="st4" d="M72.7,83V16.2c0-3.1,0-3.1,3.2-3.1h53.2c2.9,0,3.2,0.1,2.9,3.2c-1.2,13.4-2.5,27-3.8,40.4
						c-1,12-2,23.9-3.1,35.9c-1.2,13.4-2.5,27-3.8,40.4c-0.1,1.8-0.4,3.6-0.4,5.4c0,1.2-0.6,1.8-1.8,2c-14.9,4.1-29.8,8.2-44.8,12.4
						c-1.3,0.3-1.9,0.1-1.9-1.3v-1.9C72.7,127.3,72.7,105.2,72.7,83z M78.7,63.5c0,9.9,0,19.8,0,29.6c0,1.5,0.4,1.9,1.9,1.6
						c8.5-1.6,16.8-3.1,25.2-4.5c1.5-0.3,1.8,0.1,1.6,1.5c-0.3,3.6-0.4,7.1-0.6,10.8c0,1.6-0.7,2.3-2.2,2.6c-8,2-16,4.2-24.2,6.4
						c-1.3,0.3-1.9,0.9-1.9,2.2c0.1,4.5,0.1,9,0,13.6c0,1.3,0.3,1.8,1.8,1.3c12-3.2,24.1-6.3,36-9.5c1.2-0.3,1.6-0.7,1.8-1.9
						c1-14.4,2.2-28.7,3.4-43c0.1-2.6,0.1-2.6-2.5-2.3c-7.9,1-15.9,1.9-23.8,2.9c-1.9,0.3-2.6-0.1-2.5-2.2c0.1-7,0.1-14,0-21
						c0-1.9,0.4-2.5,2.5-2.5c8.8,0.1,17.5,0,26.3,0.1c1.5,0,2.2-0.3,2.2-1.9c0.3-4.4,0.7-8.8,1.2-13.1c0.1-1.8-0.3-2.2-2-2.2
						c-14,0-28,0.1-42,0c-1.8,0-2.2,0.6-2.2,2.3C78.7,43.9,78.7,53.7,78.7,63.5z"/>
				</g>
			</g>
		</g>
	</g>
</g>
</svg>
