<svg xmlns="http://www.w3.org/2000/svg" viewBox="0 0 512 512" width="500" height="500">
	<style>
		tspan { white-space:pre }
		.shp0 { fill: #464442 } 
	</style>
	<g id="Layer">
	</g>
	<path id="Layer" class="shp0" d="M453.5,256.68c0,-20.46 -3.16,-40.26 -8.9,-58.82l-88.18,228.83c58.08,-34.37 97.07,-97.62 97.07,-170.01z" />
	<path id="Layer" class="shp0" d="M193.63,443.88c19.63,6.59 40.64,10.14 62.53,10.14c22.87,0 44.77,-3.87 65.19,-11.03l-60.24,-156.18l-67.47,157.07z" />
	<path id="Layer" class="shp0" d="M66.84,200.89c-5.21,17.68 -8.06,36.4 -8.06,55.79c0,73.95 40.71,138.39 100.89,172.16l-92.23,-226.7z" />
	<path id="Layer" class="shp0" d="M167.38,188.16l-8.48,-0.38c-18.49,-0.31 -16.45,18.89 -16.45,18.89l65.62,164.58l44.11,-105.37l-24.63,-62.7c-9.86,-16.58 -33.92,-16.4 -33.92,-16.4v-8.73h137.97l-0.2,9.69l-14.36,0.89c-17.88,0 -14.26,17.01 -14.26,17.01l59.87,159.94l17.16,-44.29c30.44,-69.02 11.66,-120.09 11.66,-120.09c-30.49,-62.72 8.04,-71.72 8.04,-71.72c2.44,-0.35 4.72,-0.54 6.96,-0.65c-36.2,-42.54 -90.12,-69.52 -150.32,-69.52c-81.4,0 -151.32,49.33 -181.47,119.71l92.37,-0.95l0.33,10.11z" />
	<path id="Layer" class="shp0" d="M477.84,256.02c0,122.31 -99.52,221.84 -221.8,221.84c-122.34,0 -221.86,-99.53 -221.86,-221.84c0,-122.34 99.52,-221.83 221.86,-221.83c122.28,0.01 221.8,99.49 221.8,221.83zM256.04,23.97c-127.94,0 -232.05,104.11 -232.05,232.06c0,127.95 104.11,232.01 232.05,232.01c127.92,0 231.96,-104.06 231.96,-232.01c0,-127.95 -104.04,-232.06 -231.96,-232.06z" />
</svg>